<svg width="720" height="540" viewBox="0 0 720 540" fill="none" xmlns="http://www.w3.org/2000/svg">
  <rect width="720" height="540" rx="40" fill="#F4FBFC"/>
  <rect x="70" y="74" width="580" height="392" rx="32" fill="white" stroke="#D8E1E5"/>
  <rect x="110" y="110" width="250" height="150" rx="24" fill="#E7F8F4"/>
  <rect x="386" y="110" width="224" height="92" rx="24" fill="#EAF4F8"/>
  <rect x="386" y="216" width="224" height="140" rx="24" fill="#FFFFFF" stroke="#D8E1E5"/>
  <circle cx="180" cy="188" r="48" fill="#14354A"/>
  <rect x="142" y="242" width="76" height="92" rx="24" fill="#64C7B2"/>
  <rect x="98" y="352" width="170" height="18" rx="9" fill="#D9F1F6"/>
  <rect x="412" y="134" width="96" height="16" rx="8" fill="#14354A"/>
  <rect x="412" y="162" width="162" height="12" rx="6" fill="#7A94A4"/>
  <rect x="412" y="240" width="96" height="16" rx="8" fill="#14354A"/>
  <rect x="412" y="274" width="150" height="12" rx="6" fill="#7A94A4"/>
  <rect x="412" y="302" width="126" height="12" rx="6" fill="#7A94A4"/>
  <rect x="412" y="330" width="172" height="12" rx="6" fill="#7A94A4"/>
  <rect x="300" y="260" width="44" height="112" rx="22" fill="#14354A"/>
  <rect x="310" y="236" width="24" height="60" rx="12" fill="#64C7B2"/>
  <path d="M322 208C338 208 350 221 350 237V260H294V237C294 221 306 208 322 208Z" fill="#D9F1F6"/>
  <path d="M274 262C274 298 302 326 338 326H340C376 326 404 298 404 262" stroke="#64C7B2" stroke-width="16" stroke-linecap="round"/>
  <path d="M339 328V360" stroke="#14354A" stroke-width="14" stroke-linecap="round"/>
  <path d="M309 388H369" stroke="#14354A" stroke-width="14" stroke-linecap="round"/>
  <circle cx="574" cy="386" r="54" fill="#14354A" opacity="0.08"/>
  <circle cx="132" cy="402" r="34" fill="#64C7B2" opacity="0.2"/>
</svg>
