<?xml version="1.0" encoding="UTF-8"?>
<svg id="Capa_1" xmlns="http://www.w3.org/2000/svg" xmlns:xlink="http://www.w3.org/1999/xlink" version="1.1" viewBox="0 0 2816 1536">
  <!-- Generator: Adobe Illustrator 30.2.1, SVG Export Plug-In . SVG Version: 2.1.1 Build 1)  -->
  <defs>
    <style>
      .st0 {
        fill: #7ed488;
      }

      .st1 {
        fill: url(#Agua_con_horizonte_33);
      }

      .st2 {
        fill: url(#Agua_con_horizonte_31);
      }

      .st3 {
        fill: url(#Agua_con_horizonte_32);
      }

      .st4 {
        fill: url(#Piedra_jaspeada);
      }

      .st5 {
        fill: #fff;
      }

      .st6 {
        fill: #20b37a;
      }

      .st7 {
        fill: url(#Agua_con_horizonte_3);
      }

      .st8 {
        fill: url(#Degradado_sin_nombre_148);
      }

      .st9 {
        fill: url(#Degradado_sin_nombre_147);
      }

      .st10 {
        fill: url(#Piedra_negra);
      }

      .st11 {
        fill: url(#Piedra_negra1);
      }

      .st12 {
        fill: url(#Piedra_negra4);
      }

      .st13 {
        fill: url(#Piedra_negra5);
      }

      .st14 {
        fill: url(#Piedra_negra2);
      }

      .st15 {
        fill: url(#Piedra_negra6);
      }

      .st16 {
        fill: url(#Piedra_negra8);
      }

      .st17 {
        fill: url(#Piedra_negra3);
      }

      .st18 {
        fill: url(#Piedra_negra7);
      }

      .st19 {
        fill: url(#Degradado_sin_nombre_15);
      }

      .st20 {
        fill: url(#Degradado_sin_nombre_11);
      }

      .st21 {
        fill: url(#Degradado_sin_nombre_12);
      }

      .st22 {
        fill: url(#Degradado_sin_nombre_13);
      }

      .st23 {
        fill: url(#Degradado_sin_nombre_14);
      }

      .st24 {
        fill: url(#Piedra_jaspeada1);
      }

      .st25 {
        display: none;
      }
    </style>
    <linearGradient id="Piedra_jaspeada" data-name="Piedra jaspeada" x1="1143.9" y1="1108.48" x2="1173.31" y2="1108.48" gradientUnits="userSpaceOnUse">
      <stop offset="0" stop-color="#989aa2"/>
      <stop offset=".03" stop-color="#9a9ca4"/>
      <stop offset=".19" stop-color="#acaeb8"/>
      <stop offset=".36" stop-color="#b6b9c4"/>
      <stop offset=".53" stop-color="#babdc8"/>
      <stop offset=".69" stop-color="#bdc0cb"/>
      <stop offset=".84" stop-color="#c9cbd5"/>
      <stop offset=".99" stop-color="#dcdde5"/>
      <stop offset="1" stop-color="#dedfe7"/>
    </linearGradient>
    <linearGradient id="Agua_con_horizonte_3" data-name="Agua con horizonte 3" x1="494.79" y1="793.27" x2="854.53" y2="793.27" gradientUnits="userSpaceOnUse">
      <stop offset="0" stop-color="#fff"/>
      <stop offset=".5" stop-color="#b7dad9"/>
      <stop offset=".51" stop-color="#00a6bb"/>
      <stop offset=".79" stop-color="#008a9f"/>
      <stop offset=".98" stop-color="#00798d"/>
    </linearGradient>
    <linearGradient id="Agua_con_horizonte_31" data-name="Agua con horizonte 3" x1="889.41" y1="1093.69" x2="1069.71" y2="1093.69" xlink:href="#Agua_con_horizonte_3"/>
    <linearGradient id="Agua_con_horizonte_32" data-name="Agua con horizonte 3" x1="225.11" y1="879.35" x2="1091.91" y2="879.35" xlink:href="#Agua_con_horizonte_3"/>
    <linearGradient id="Agua_con_horizonte_33" data-name="Agua con horizonte 3" x1="640.21" y1="872.37" x2="971.07" y2="872.37" xlink:href="#Agua_con_horizonte_3"/>
    <linearGradient id="Degradado_sin_nombre_11" data-name="Degradado sin nombre 11" x1="803.62" y1="595.55" x2="480.2" y2="1153.84" gradientUnits="userSpaceOnUse">
      <stop offset="0" stop-color="#d3effa"/>
      <stop offset=".67" stop-color="#8bd3f0"/>
      <stop offset=".86" stop-color="#5bbfe8"/>
      <stop offset=".94" stop-color="#65c2ea"/>
      <stop offset="1" stop-color="#2ba9df"/>
    </linearGradient>
    <linearGradient id="Degradado_sin_nombre_12" data-name="Degradado sin nombre 12" x1="757.29" y1="571.43" x2="543.09" y2="1008.64" gradientUnits="userSpaceOnUse">
      <stop offset="0" stop-color="#cae8f9"/>
      <stop offset="1" stop-color="#63bbe9"/>
    </linearGradient>
    <linearGradient id="Degradado_sin_nombre_13" data-name="Degradado sin nombre 13" x1="774.08" y1="733.85" x2="777.09" y2="988.04" gradientUnits="userSpaceOnUse">
      <stop offset="0" stop-color="#afdef6"/>
      <stop offset="1" stop-color="#49afe4"/>
    </linearGradient>
    <linearGradient id="Degradado_sin_nombre_14" data-name="Degradado sin nombre 14" x1="984.75" y1="993.41" x2="976.27" y2="1197.89" gradientUnits="userSpaceOnUse">
      <stop offset="0" stop-color="#7bc9ec"/>
      <stop offset="1" stop-color="#2ca4de"/>
    </linearGradient>
    <linearGradient id="Degradado_sin_nombre_15" data-name="Degradado sin nombre 15" x1="904.24" y1="755.38" x2="894.96" y2="903.73" gradientUnits="userSpaceOnUse">
      <stop offset="0" stop-color="#c8eaf9"/>
      <stop offset="1" stop-color="#94d4f1"/>
    </linearGradient>
    <linearGradient id="Degradado_sin_nombre_147" data-name="Degradado sin nombre 147" x1="777.78" y1="611.82" x2="516.11" y2="1179.12" gradientUnits="userSpaceOnUse">
      <stop offset="0" stop-color="#b5e9d9"/>
      <stop offset=".27" stop-color="#94dadd"/>
      <stop offset=".32" stop-color="#6ec5dd"/>
      <stop offset=".85" stop-color="#258cd0"/>
      <stop offset="1" stop-color="#3fa2db"/>
    </linearGradient>
    <linearGradient id="Degradado_sin_nombre_148" data-name="Degradado sin nombre 148" x1="689.23" y1="520.67" x2="659.47" y2="1036.84" gradientUnits="userSpaceOnUse">
      <stop offset="0" stop-color="#b5e99b"/>
      <stop offset="1" stop-color="#46be7c"/>
    </linearGradient>
    <linearGradient id="Piedra_negra" data-name="Piedra negra" x1="2012.56" y1="827.61" x2="2183.45" y2="827.61" gradientUnits="userSpaceOnUse">
      <stop offset="0" stop-color="#999998"/>
      <stop offset=".04" stop-color="#8e8e8d"/>
      <stop offset=".13" stop-color="#777776"/>
      <stop offset=".23" stop-color="#666665"/>
      <stop offset=".34" stop-color="#5d5d5c"/>
      <stop offset=".49" stop-color="#5a5a59"/>
      <stop offset=".7" stop-color="#565655"/>
      <stop offset=".87" stop-color="#4d4d4c"/>
      <stop offset="1" stop-color="#3f3f3e"/>
    </linearGradient>
    <linearGradient id="Piedra_negra1" data-name="Piedra negra" x1="2387.08" y1="887.2" x2="2559" y2="887.2" xlink:href="#Piedra_negra"/>
    <linearGradient id="Piedra_negra2" data-name="Piedra negra" x1="1626.6" y1="857.94" x2="1774.96" y2="857.94" xlink:href="#Piedra_negra"/>
    <linearGradient id="Piedra_negra3" data-name="Piedra negra" x1="2206.31" y1="858.08" x2="2353.77" y2="858.08" xlink:href="#Piedra_negra"/>
    <linearGradient id="Piedra_negra4" data-name="Piedra negra" x1="1374.75" y1="859.68" x2="1524.18" y2="859.68" xlink:href="#Piedra_negra"/>
    <linearGradient id="Piedra_negra5" data-name="Piedra negra" x1="2568.53" y1="837.31" x2="2680.65" y2="837.31" xlink:href="#Piedra_negra"/>
    <linearGradient id="Piedra_negra6" data-name="Piedra negra" x1="1557.82" y1="826.11" x2="1601.93" y2="826.11" gradientTransform="translate(2405.07 -754.24) rotate(89.97)" xlink:href="#Piedra_negra"/>
    <linearGradient id="Piedra_negra7" data-name="Piedra negra" x1="1143.05" y1="829.5" x2="1365.26" y2="829.5" xlink:href="#Piedra_negra"/>
    <linearGradient id="Piedra_negra8" data-name="Piedra negra" x1="1789.32" y1="829.47" x2="2010.65" y2="829.47" xlink:href="#Piedra_negra"/>
    <linearGradient id="Piedra_jaspeada1" data-name="Piedra jaspeada" x1="1196.63" y1="1108.81" x2="1396.21" y2="1108.81" xlink:href="#Piedra_jaspeada"/>
  </defs>
  <g>
    <rect class="st4" x="1143.92" y="1004.34" width="29.36" height="208.29"/>
    <g>
      <path class="st7" d="M494.79,893.73c63.82,52.56,85.96,101.05,92.8,186.17l111.76-251.51c31.92-69.97,76.98-118.95,155.18-135.66-33.27-94.77-120.36-154.75-211.35-184.53-3.2,0-14.25-4.06-15.98.93l-109.2,313.54c-8.44,24.24-16.59,45.75-23.2,71.06Z"/>
      <path class="st2" d="M889.41,1039.62c4.65,36.39,12.49,71.29,26.6,104.51,26.25,61.81,90.48,80.09,153.7,63.08l-65.68-233.07c-36.6,27.46-72.02,49.21-114.61,65.48Z"/>
      <path class="st3" d="M1048.21,724.01c-29.3-13.99-62.1-19.17-95.66-12.01,21.27,5.77,41.43,10.14,59.93,21.95,28.93,18.46,37.66,51.52,21.85,83.05-39.33,78.44-155.58,131.61-234.31,157.46-.84-.12-1.76.09-2.59-.12-3.3-.84-5.55,2.95-8.09,3.55-29.47,6.95-58.12,18.32-86.2,32.89-48.68,25.27-86.86,63.14-114.02,110.3-6.71,11.66-11.29,22.68-19.29,34.52-2.3-15.63-1.12-29.84-1.6-45.68-2.47-81.49-38.29-162.28-115.4-201.59l57.51-165.35c18.81-54.08,41.55-106.9,58.36-164.4-19.67-14.39-46.06-26.91-69.83-32.97-23.36,50.11-34,102.83-51.18,152.19l-86.33,248.1c95.64,23.17,179.32,92.62,188.96,191.14-1.11.43-2.17.98-3.19,1.61-44.23-96.82-124.22-150.32-230.28-165.36l118.55-345.98c-18.78-2.88-76.03-5.62-84.34,19.21l-125.95,376.18,74,4.15c46.23,2.59,89.47,15.03,130.43,35.9,59.23,30.18,103.04,81.03,118.67,147.1,42.05,10.06,85.45-3.96,116.11-34.69,34.14-34.23,39.45-75.91,58.42-89.31,37.88-26.75,113.72-47.67,161.71-67.97,75.56-31.95,164.28-87.79,197.14-168.43,18.8-46.14,14.36-102.67-33.35-125.44Z"/>
      <path class="st1" d="M766.2,769.4c-20.39,20.57-31.88,44.48-43.36,68.53-28.63,59.98-55.69,120.65-82.62,185.64,41.16-27.26,79.9-48.71,124.67-62.05l44.41-101.66c5.37-10.94,11.93-19.57,20.01-27.12,27.46-9.26,39.92,68.69,46.56,89.25,34.84-17.61,65.1-36.86,95.21-59.65-7.13-33.07-16.81-63.18-30.98-91.9-20.93-39.34-62.06-58-104.79-45.36-27.03,8-49.56,24.58-69.11,44.31Z"/>
    </g>
    <g id="Objeto_generativo">
      <g id="Background" class="st25">
        <polygon class="st5" points="38.08 1341.96 38.08 377.39 1278.94 377.39 1278.94 1342.5 38.08 1342.5 38.08 1341.96"/>
      </g>
      <g>
        <path class="st20" d="M569.24,1152.76c.01.37-.34.95-.14,1.73.2.74.56.63,1.12.09.47-.45.56-.87,1.04-1.77,24.04-45.36,50.34-85.53,92.24-117.78,24.87-19.14,51.95-33.23,81.61-43.42l65.65-22.56c55.98-19.23,110.63-44.06,158.73-79.67,40.53-30,101.91-98.13,53.44-146.14-8.5-8.41-18.34-13.72-29.17-18.37-14.06-6.04-28.51-7.01-44.67-10.63,34.72-9.69,75.74-6.77,105.46,11.76,36.59,22.81,44.95,63.95,33.18,103.84-8.51,28.85-23.54,54.1-42.91,77.12-42.71,50.76-99.59,85.46-159.79,111.45-23.1,9.97-46.21,18.02-69.99,25.96-32.76,10.94-70.13,22.35-95.42,46.86-20.99,20.33-24.95,40.05-38.38,62.92-27.82,47.38-82.57,66.7-135.14,56.24-8.12-48.94-40.99-93.04-79.47-123.09-26.46-20.66-55.82-35.51-88.16-45.68-50.93-16.01-101.95-16.46-155.13-17.87l130.81-387.9c27.51-10.25,50.86-14.24,80.58-8.14l-80.09,235.45-37.07,110.04c88.63,10.99,167.82,56.52,213.42,134.42,8,13.58,13.19,26.6,18.71,39.9.06.75-.58,2.6,1.08,0-2.42-18.37-4.55-36.59-11.03-54.63-27.02-75.25-100.37-128.83-178.77-145.3l99.67-293.32,36.75-108.46c16.9,2.99,32.83,8.83,47.14,17.83l24.15,15.18-41.15,117.12-30.88,84.19-43.94,128.55c79.44,45.45,111.89,117.4,115.09,205.4l1.4,38.65Z"/>
        <path class="st21" d="M588.07,1080.49l-4.51-40.38c-5.92-53.04-46.28-115-91.27-146.71l29.24-82.45,96.48-276.1,9.97-29.21c103.37,20.91,188.87,91.78,229.87,190.31-68.26,4.1-126.58,63.8-152.48,121.83l-117.29,262.72Z"/>
        <path class="st22" d="M914.02,739.39c.61.91-.6,2.18-1.62,2.88-9.65,6.52-18.7,12.42-27.76,20.65-23.02,20.91-43.73,44.31-58.25,70.88-3.44,2.89-5.22,6.33-7.66,9.74-22.37,38.06-37.36,77.25-52.54,118.29-25.74,8.15-50.02,17.54-73.92,29.73-19.2,9.8-35.99,21.5-54.76,33.51l76.77-171.8c18.62-41.66,43.99-81.38,81.33-108.29,35.27-25.42,83.41-35.61,118.43-5.59Z"/>
        <path class="st23" d="M1070.44,1207.12c-25.43,7.73-52.64,8.16-78.32,1.97-26.99-6.5-49.29-22.09-65.2-44.54-11.34-16.5-18.95-34.14-23.93-53.79-6.02-23.75-10.6-47.29-14.67-71.58,41.31-16.63,79.06-37.84,114.94-64.71l6.52,19.97,38.33,137.02,22.35,75.66Z"/>
        <path class="st19" d="M826.38,833.8c14.52-26.57,35.23-49.97,58.25-70.88,9.06-8.23,18.12-14.13,27.76-20.65,1.03-.69,2.23-1.97,1.62-2.88,9.84,8.43,19.19,17.69,25.23,30.64,9.03,15.28,15.47,31.59,19.9,49.01l11.29,44.41c-30.27,22.82-61.75,42.1-95.73,57.89-4.81-22.05-10.04-42.44-18.08-62.55-3.24-8.1-6.67-15.72-12.37-21.97-4.93-5.61-12.1-7.03-17.88-3.02Z"/>
        <g>
          <path class="st5" d="M549.72,1147.54h1.08c-1.65,2.6-1.01.75-1.08,0Z"/>
          <path class="st5" d="M571.26,1152.81c-.47.9-.57,1.32-1.04,1.77-.57.54-.93.65-1.12-.09-.21-.78.15-1.35.14-1.73.63-.38,1.41-.37,2.02.05Z"/>
        </g>
      </g>
    </g>
    <g id="Objeto_generativo1" data-name="Objeto_generativo">
      <g id="Background1" data-name="Background" class="st25">
        <polygon class="st5" points="38.08 1341.96 38.08 377.39 1278.94 377.39 1278.94 1342.5 38.08 1342.5 38.08 1341.96"/>
      </g>
      <g>
        <path class="st9" d="M565.87,1163.7c-.12,1.21,1.11,1.42,1.08,0,36.77-85.9,101.95-149.89,193.87-178.3,31.29-9.67,61.2-18.66,91.19-30.83,39.47-16.03,76.64-35.62,111.19-61.11,32-23.61,67.79-57.01,75.91-96.94,4.3-21.16-2.57-41.41-18.78-54.98-20.28-16.98-46.31-24.13-71.33-29.91,36.48-8.32,74.11-4.69,104.93,15.67,23,15.19,36.95,39.16,38.42,67,2.96,56.08-41.6,113.92-82.92,148.64-45.95,38.6-98.66,68.96-155.68,87.4-41.93,13.56-82.72,28.16-121.17,50.25-12.57,7.22-21.65,18.36-27.84,31.54-7.69,16.36-15.05,31.66-25.83,46.27-32.14,43.55-77.23,66.06-131.1,51.48-16.46-68.33-63.77-119.28-125.5-149.47-61.77-30.22-128.78-38.93-198.63-35.46l130.99-392.34c26.18-6.89,53.5-9.42,80.7-6.12l-118.49,346.94c102.22,10.77,196.46,75.36,230.55,172.72.02,1.61,1.46,1.72.98-.02-.89-39.22-14.37-76.84-38.99-108.05-35.57-45.44-91.9-78.74-148.31-91.97l103.25-304.13,33.04-96.26c26.71,4.66,51.31,16,72.96,32.1l-84.81,234.49-34.56,96.84c60.96,27.6,96.27,82.8,109.85,146.62,7.46,35.72,8.73,72.01,5.04,107.95Z"/>
        <path class="st8" d="M749.07,751c-20.16,21.8-35.37,45.97-47.26,72.76l-116.11,261.53c-1.02-75.39-28.5-146.84-92.81-190.66l71.44-206.76,63.84-182.29c62.88,16.36,122.8,46.12,167.95,92.91,26.36,27.45,46.26,59.6,57.85,95.87-40.37,4.09-77.43,26.67-104.91,56.65Z"/>
        <path class="st0" d="M823.92,836.4c-7.99,9.76-13.48,20.31-18.82,31.47-14.75,30.82-27.39,62.24-39.88,94.02-48.08,13.66-92.04,36.68-129.73,69l86.63-193.63c14.61-32.24,34.42-61.19,61.06-84.07,41.62-35.75,98.29-50,139.08-5.02,26.64,29.42,39.6,75.27,47.32,113.11-29.52,24.95-61.67,44.59-95.73,60.92-5.12-23.89-13.74-71.21-31.04-87.13-6.08-5.53-13.75-4.96-18.9,1.32Z"/>
        <path class="st6" d="M924.76,1161.88c-12.94-19.97-20.09-41.1-25.83-63.92l-11.45-57.75c42.51-17.24,80.6-38.99,116.62-66.03l64.9,232.98c-54.09,16.52-111.92,5.62-144.24-45.28Z"/>
        <path class="st5" d="M547.43,1146.13c.24-.77.58-.58.98-.02.48,1.74-.95,1.63-.98.02Z"/>
        <path class="st5" d="M565.87,1163.7h1.08c.04,1.42-1.2,1.21-1.08,0Z"/>
      </g>
    </g>
    <g>
      <path class="st10" d="M2139.8,924.66c-9.86,10.71-19.99,17.33-33.42,20.07-39.4,8.01-77.04-15.25-88.93-53.63-13.96-45.09,1.78-102.76,49.59-117.44,26.75-8.22,51.58-4.47,72.6,14.33l1.23-78.34c14.21-.86,27.82-1.17,42.34.34l.24,232.33c-14.14,1.64-26.99.94-40.94.77l-2.71-18.43ZM2130.31,891.21c13.45-17.59,13.28-39.1,5.51-57.64-6.46-15.41-19.92-24.65-34.55-25.03-16.34-.42-30.2,7.9-37.29,23.29-9.45,20.52-8.15,45.81,8.15,62.86s44.05,14.99,58.18-3.48Z"/>
      <path class="st11" d="M2431.01,1003.95c-15.46,1.29-28.4.86-43.88.29l-.06-230.16c14.5-1.77,26.89-.74,40.99-.66l3.1,16.96c12.96-14.16,29.83-21.04,49.32-20.77,29.78.4,55.4,16.03,68.28,43.1,14.1,29.64,13.69,64.6-1.55,93.65-11.07,21.09-30.57,34.4-51.52,38.53-24.28,4.8-46.51-2.09-64.79-19.13l.12,78.19ZM2504.47,889.63c12.23-18.55,12.17-43.06,1.56-60.83-7.89-13.22-20.82-20-34.73-19.85-12.81.14-24.53,7.19-32.43,19.07-9.4,14.14-10.14,32.18-5.14,48.42,4.8,15.58,16.83,26.12,31.06,28.54,14.55,2.48,30.22-1.01,39.68-15.36Z"/>
      <path class="st14" d="M1673.62,945.62c-26.37-3.24-44.39-23.21-46.7-45.67-2.77-26.96,12.81-47.35,39-55.49,20.45-6.36,41.5-5.7,63.63-6.64,4.25-13.2-2.55-26.98-15.51-30.73-19.72-5.71-37.67,2.27-49.48,19.35-12.52-4.22-22.56-9.99-32.45-17.1,17.32-38.16,65.44-46.31,101.08-35.32,23.85,7.36,41.13,27.78,41.24,53.48l.53,115.41-39.54.3-3.64-16.23c-14.67,16.28-35.32,21.45-58.17,18.64ZM1691.94,911.83c13.68,1.48,25.13-2.83,32.48-11.82,6.86-8.38,8.87-20.81,5.75-31.73-20.78-1.2-62.52-1.03-58.75,26.36,1.2,8.7,8.49,15.89,20.51,17.19Z"/>
      <path class="st17" d="M2246.41,944.02c-25.45-6.26-39.73-26.39-40.1-49.39-.86-53.3,60.57-57.07,103.07-56.71,3.42-11-1.67-24.48-13.2-29.34-19.87-8.36-40.1-.04-52.39,17.72-11.48-5.09-20.59-9.43-31-15.89,13.27-39.06,69.38-48.59,105.42-34.47,20.53,8.05,34.92,26.87,35.02,48.97l.55,118.1-39.63.15-3.73-15.12c-16.15,16.92-40.07,21.87-63.99,15.98ZM2275.67,912.78c13.86-.11,23.64-5.74,29.67-13.95,5.62-7.65,8.11-21.77,4.07-29.71-17.44-3.34-61.55-1.66-58.39,25.56,1.32,11.32,10.99,18.21,24.65,18.1Z"/>
      <path class="st12" d="M1523.97,773.31l.21,169.32-40.42.69c-1.63-4.95.79-9.72-2.82-15.55-18.29,19.06-44.17,23.21-69.28,13.53-21.04-8.11-36.78-30.18-36.8-56.2l-.12-111.39,43.32-.31,1.04,102.84c.18,17.36,14.3,29.29,29.46,29.02,16.63-.3,30.86-11.92,31.01-30.52l.79-100.56c13.42-2.11,25.87-.56,43.6-.85Z"/>
      <path class="st13" d="M2677.19,903.84l3.46,36.68c-19.42,6.91-39.94,6.96-58.39-1.75-17.68-8.34-27.49-25.8-27.62-45.44l-.53-81.15-24.84-.68c-.66-12.39-1.47-25.22.5-37.84,6.96-1.46,17.94,2.01,21.76-3.89,7.31-11.3,1.69-26.14,3.79-39.8,13.87-1.4,28.61-.92,43.17-.16l.64,42.09c12.46,2.65,23.79.36,37.06,1.49,1.86,11.19,1.27,23.2.6,36.97-12.57,3.24-24.23-.36-37.9,1.62v73.33c0,11.15,7.03,18.43,17.61,19.91,6.57.92,11.92-.85,20.68-1.4Z"/>
      <rect class="st15" x="1462.69" y="804.12" width="234.36" height="43.98" transform="translate(752.86 2405.5) rotate(-89.97)"/>
      <path class="st18" d="M1298.81,894.44l-90.08.04-16.35,48.04c-16.71.41-32.77,1.79-49.33-.4l84.88-225.76c18.59-.66,34.55-1.28,52.35.32l84.98,225.5c-16.11,2.08-32.12.75-49.42.71l-17.03-48.45ZM1284.32,854l-30.99-85.24-30.3,85.95c20.42.21,40.32,1.78,61.29-.71Z"/>
      <path class="st16" d="M1943.77,894.33l-89.06.16-17.65,48.01-47.73-.04,84.09-225.83c17.71-1.12,33.73-1.29,51.42.09l85.81,225.34c-16.62,1.59-32.57,1.25-49.18.53l-17.71-48.27ZM1930.36,854.6l-31.33-84.8-31.57,84.85,62.9-.05Z"/>
    </g>
  </g>
  <path class="st24" d="M1345.18,1158.81l-98.43-.75-22.78,51.54c-3.15,7.13-20.01,3.46-27.35.51l83.87-203.68c8.13-3.94,19.4-2.51,29.25-.87l86.47,205.15c-8.54,2.55-21.83,4.26-28.67.08-10.81-15.14-13.57-32.92-22.36-51.97ZM1333.95,1132.95l-38.66-92.95-38.62,92.77,77.28.18Z"/>
</svg>