<?xml version="1.0" encoding="utf-8"?>
<!-- Generator: Adobe Illustrator 26.0.3, SVG Export Plug-In . SVG Version: 6.00 Build 0)  -->
<svg version="1.1" id="Capa_1" xmlns="http://www.w3.org/2000/svg" xmlns:xlink="http://www.w3.org/1999/xlink" x="0px" y="0px"
	 viewBox="0 0 700 400" style="enable-background:new 0 0 700 400;" xml:space="preserve">
<style type="text/css">
	.st0{fill:#565454;}
	.st1{fill:#F18A00;}
	.st2{fill:#79242F;}
	.st3{fill:#4F4D4D;}
	.st4{fill:#FFFFFF;}
</style>
<g>
	<g>
		<polygon class="st0" points="564.2,384.2 140.7,384.2 140.7,363.3 140.7,342.5 564.2,342.5 		"/>
	</g>
	<rect x="140.7" y="342.5" class="st1" width="69.3" height="41.8"/>
	<g>
		<path class="st1" d="M317.5,264.2c35.8-1.3,71.9-0.1,71.9-0.1s-73.6,12.2-93.6,43.4L317.5,264.2z"/>
		<path class="st2" d="M549,250.1l0.2-0.3h-43c14,10.1,12.9,29,12.9,29l0.1,7.5l0.1-0.1v16.6c-7.7,2.8-15.2,4.2-22.5,4.2
			c-17.8,0-32.2-6.1-43.3-18.2c-11.1-12.1-16.6-27.8-16.6-47.1c0-18.9,5.9-34.2,17.6-45.9c11.7-11.7,27.2-17.5,46.5-17.5
			c12.4,0,24.5,3.2,36.2,9.6l11-20.3c-15.8-8.9-32.7-13.4-50.6-13.4c-28.4,0-51.7,8.3-70.1,24.9C409.1,195.8,400,217,400,242.7
			c0,6.1,0.5,11.9,1.5,17.4l-38.7-103h-26.4l0,0h-18.3c11.9,8.6,10.1,19.2,9.2,22.1l-40,97.8c0.8-6.4,1.2-14.4,1.2-24.1v-95.9H258
			v90.2c0,17.9-1.3,30.3-3.9,37.2c-5.7,15-17,22.5-33.9,22.5c-13.2,0-22.8-4.8-28.8-14.4c-3.4-5.4-5.6-12.5-6.6-21.5
			c-0.5-4.2-0.7-11.9-0.7-23v-91h-34.5v0h-12.9c10.4,7.6,12.5,20,12.9,25.8v68.1c0,12.7,0.3,21.6,1,26.6c1.1,9.8,3.8,18.1,7.8,24.9
			c11.4,19.1,31.4,28.6,59.9,28.6c25.8,0,44.7-8.2,56.9-24.4l-8.8,21.5h28.4L345,194.8l45.2,133.5h36.9L412,288.1
			c4,6.6,8.9,12.7,14.9,18.2c17.9,16.6,40.8,24.9,68.5,24.9c17.9,0,37.4-3.5,58.4-10.5v-70.7H549z"/>
	</g>
	<g>
		<g>
			<path class="st3" d="M192.9,214.8c-3.7,0-10-1.5-11.3-11.2c0-0.1,0-0.1,0-0.2c-2.1-41.5-2.3-83.4-0.5-124.6c0-0.1,0-0.2,0-0.4
				c0,0.1,0,0.2,0,0.3c-0.1,9.1-4.3,11.5-7.9,12c-0.5,0.1-0.9,0.1-1.4,0.1c-3.6,0-8.2-2.1-9.6-11.9c-0.6-4.2,0.1-8.6,1.9-12.9
				c1.8-4.1,5.1-9.5,10-16.6c0.1-0.1,0.1-0.2,0.2-0.3c3.7-4,5.7-8.1,5.9-12.2c0.2-2.6,2-5.8,8.8-6.7c8.3-1.1,15.3-3,20.9-5.5
				c6.5-3,13-5,19.4-5.9c2.6-0.4,5.2-0.5,7.7-0.5c8,0,15.5,1.9,22.3,5.6c9.9,5.5,15.8,14.1,17.4,25.7c0.5,3.9,0.4,8-0.6,12.1
				c-2.1,8.5-3.8,13.9-5.4,16.8c-9.5,25.5-22.2,49.6-37.8,71.8c-5.4,8.5-12.4,13.9-20.6,15.9c-0.1,0-0.2,0-0.3,0
				c-2.2,0.3-4.7,0.5-7.5,0.6c-0.8,0.7-3.4,5.4-0.6,35.1c0,0,0,0.1,0,0.1c0.3,8.7-3.4,11.4-6.7,12.1c-0.1,0-0.1,0-0.2,0l-1.8,0.3
				C194.5,214.7,193.7,214.8,192.9,214.8z M238.1,35.3c-1.8,0-3.9,0.2-6,0.4c-2,0.3-5.7,1.2-10.9,2.8c-5,1.5-9.5,3.9-13.2,7
				c-3.4,2.8-5,8-4.9,15.6c0.7,17.8,0.7,35.9,0,53.7c-0.7,17.6-0.7,28.7-0.1,33c0.4,2.7,0.9,3.7,1.1,4l0.8-0.1
				c0.5-0.4,1.8-1.7,5.3-6.2c19.2-25.2,33.2-53.4,41.6-83.8c1.4-6.2,1.8-11.4,1.2-15.4C251.9,38.8,247.2,35.3,238.1,35.3z"/>
			<path class="st4" d="M237.1,20.9c7.7,0,14.7,1.8,21.1,5.3c9.3,5.1,14.6,13,16.1,23.9c0.5,3.7,0.3,7.4-0.5,11.3
				c-2,8.3-3.8,13.7-5.2,16.2c-9.5,25.5-22,49.3-37.6,71.4c-5.1,8-11.5,13-19.1,14.8c-2.2,0.3-4.7,0.5-7.6,0.6
				c-4.1,0.6-5,13.2-2.7,37.9c0.2,5.6-1.3,8.8-4.7,9.5l-1.8,0.3c-0.7,0.1-1.4,0.1-2.1,0.1c-5.1,0-8-3-8.9-9
				c-2.1-41.5-2.3-83-0.5-124.4c0.1-3.5,0-6-0.2-7.6c-0.3-1.4-0.9-2-1.7-2c-0.1,0-0.1,0-0.2,0c-0.3,0-0.7,0.2-1.2,0.4
				c-0.5,0.2-1.1,3.2-1.7,8.9c0,5.9-1.9,9.2-5.7,9.7c-0.4,0-0.7,0.1-1,0.1c-3.9,0-6.2-3.2-7.1-9.7c-0.5-3.8,0.1-7.6,1.7-11.5
				c1.7-3.9,4.9-9.3,9.8-16.2c4.1-4.4,6.3-9,6.6-13.7c0.2-2.4,2.4-3.9,6.6-4.4c8.5-1.2,15.7-3.1,21.6-5.7c6.4-2.9,12.6-4.8,18.7-5.7
				C232.2,21,234.7,20.9,237.1,20.9 M203.9,154.3c0.1,0,0.2,0,0.3,0l1.4-0.2c0.9-0.3,3.1-2.6,6.5-7.1c19.5-25.6,33.5-53.8,42-84.7
				c1.4-6.5,1.9-12,1.3-16.3c-1.2-8.8-7-13.2-17.3-13.2c-2,0-4.1,0.2-6.4,0.5c-2.2,0.3-5.9,1.3-11.3,2.9c-5.4,1.6-10.1,4.1-14.1,7.4
				c-4,3.3-6,9.2-5.8,17.6c0.7,17.9,0.7,35.7,0,53.5c-0.7,17.8-0.7,29-0.1,33.5C201.1,152.3,202.2,154.3,203.9,154.3 M237.1,15.9
				c-2.6,0-5.3,0.2-8,0.6c-6.6,0.9-13.3,2.9-20.1,6.1c-5.4,2.4-12.2,4.2-20.2,5.3c-8.9,1.2-10.7,6.1-10.9,8.9c0,0,0,0.1,0,0.1
				c-0.2,3.6-2,7.1-5.3,10.7c-0.1,0.2-0.3,0.3-0.4,0.5c-5.1,7.2-8.5,12.8-10.3,17.1c-2,4.7-2.7,9.5-2.1,14.2
				c1.7,12.2,8.3,14,12.1,14c0.6,0,1.1,0,1.7-0.1c1.7-0.2,3.2-0.8,4.6-1.7c-1.2,37.2-0.9,74.8,1,112c0,0.1,0,0.3,0,0.4
				c1.2,8.5,6.2,13.3,13.8,13.3c0.9,0,1.8-0.1,2.8-0.2l1.8-0.3c0.1,0,0.3,0,0.4-0.1c3.4-0.7,9-3.6,8.6-14.6c0-0.1,0-0.2,0-0.3
				c-2.1-22.8-1-30.2-0.3-32.5c2.3-0.1,4.4-0.3,6.2-0.6c0.2,0,0.3-0.1,0.5-0.1c8.8-2.2,16.3-7.9,22-16.9
				c15.7-22.3,28.5-46.5,38-72.1c1.1-2,2.8-6.1,5.5-17.1c0,0,0-0.1,0-0.1c1-4.4,1.2-8.8,0.6-13c-1.7-12.4-8-21.7-18.7-27.6
				C253.4,17.9,245.5,15.9,237.1,15.9L237.1,15.9z M205.6,61.1c-0.1-6.7,1.2-11.3,3.9-13.6c3.5-2.9,7.7-5.1,12.4-6.5
				c6.3-1.9,9.2-2.5,10.5-2.7c2-0.3,4-0.4,5.7-0.4c9.8,0,11.8,4.5,12.4,8.8c0.5,3.7,0.1,8.6-1.2,14.4c-8.3,30-22.1,57.9-41.1,82.8
				c-1.1,1.5-2,2.6-2.7,3.5c-0.4-2.9-0.7-11,0.1-32.5C206.2,97.1,206.2,79,205.6,61.1L205.6,61.1z"/>
		</g>
		<g>
			<path class="st3" d="M393.1,215.4c-5.3,0-11.9-2.1-13.4-12.2c0-0.1,0-0.2,0-0.3l-0.1-2.1c-0.9-17.8-1.1-35.9-0.7-53.8
				c-1.9,2.4-4.1,4.8-6.7,7.4c-5.9,5.9-11.7,9.6-17,10.9c-2.9,0.7-5.6,1.2-8.1,1.5c-2.8,0.4-5.4,0.6-7.9,0.6
				c-17.3,0-27.3-9.1-29.8-27.1c-0.3-1.9-0.4-5.9-0.6-12.4c-0.1-4.3,0.7-9.6,2.2-15.8c-10.4,13.2-16.5,29.7-18,49.2
				c-0.9,9.8-5.3,12.4-8.8,12.9c-0.9,0.1-1.8,0.2-2.6,0.2c-3.5,0-6.8-1-9.8-3.1c0,0-0.1,0-0.1-0.1c-2.2-1.7-3.6-4.2-4-7.4
				c0-0.1,0-0.2,0-0.3c-0.7-28-0.8-51.5-0.5-69.8c0.2-5.2,2.9-8.3,7.5-9c1.2-0.2,2.4-0.2,3.4-0.2c7.5,0,12.3,4.2,13.3,11.9
				c0.2,1.6,0.1,3.7-0.3,6.3c-0.1,0.8-0.2,1.6-0.3,2.4c2.8-5.1,7.3-9.5,13.4-13.2c2.6-1.7,5.5-2.8,8.4-3.2c0.4-0.1,0.8-0.1,1.2-0.1
				c1.8,0,3.4,0.5,4.9,1.6c6.2-12.9,13.9-20,22.8-21.3c1.2-0.2,2.4-0.2,3.5-0.2c7.8,0,14.5,3.8,19.7,11.3c1.9,2.7,3.1,5.7,3.6,8.9
				c0.5,3.9,0,8.2-1.7,12.6c0,0.1-0.1,0.2-0.1,0.2c-9.4,19.1-19.3,32.1-29.3,38.6c-3,2-3.7,3.3-3.6,3.8c0.1,0.6,0.2,1.1,0.5,1.6
				c0,0,0,0.1,0.1,0.1c1.6,3.7,3.5,4.1,4.8,4.1c0.3,0,0.5,0,0.8-0.1c4.9-0.7,11.2-4.8,19-12.3c5.2-5,9-8.9,11.2-11.5
				c3.3-4.3,6-6.5,8.7-6.8c0.3,0,0.6-0.1,0.9-0.1c0.1,0,0.2,0,0.2,0c0.8-14.8,2.1-29.6,3.8-44.3c0.9-7.5,5.1-9.6,8.5-10.1
				c0.4-0.1,0.9-0.1,1.4-0.1c0.8,0,1.7,0.1,2.7,0.3c7.1,1,9.2,5.4,9.6,9c0.3,2.3,0,5.7-0.9,10.5c-0.6,3.1-0.8,6.2-0.6,9.2
				c1.4-2,3.5-5.6,6.9-12c4.3-8.7,9.9-13.6,16.5-14.7c0.9-0.1,1.8-0.2,2.7-0.2c2.6,0,5.3,0.5,8.1,1.4c6,2.1,9.8,6.5,10.8,12.9
				c0.3,2.2,0.4,4.6,0.3,7.1c-0.3,16.3-5.2,31.2-14.7,44.3c-4.1,5.6-9.3,8.9-15.4,9.7c-1.1,0.1-2.2,0.2-3.3,0.2
				c-1.8,0-3.7-0.2-5.5-0.6c-0.1,0-0.1,0-0.2,0c-0.7-0.2-1.4-0.3-1.9-0.3c-0.1,0-0.2,0-0.3,0l-0.9,0.2c-0.6,1.8-2,8.1-4.4,30.1
				c-1,9.7-1,17.9-0.1,24.5l1.2,7c0.3,2,0.3,4,0.1,6c-0.3,3.1-3.1,5.1-8.3,5.8C395.2,215.3,394.1,215.4,393.1,215.4z M411.4,128.4
				c0.3-0.2,0.6-0.4,0.9-0.5c1.9-1,6.1-5.4,12.9-23.8c3.3-9.1,3.7-13.4,3.4-15.4c0-0.3-0.1-0.6-0.2-0.8c-1.3,0.9-5.1,5.1-12.3,24.8
				c-4.5,12.2-5,15-5,15.6c0,0,0,0.1,0,0.2C411.2,128.4,411.4,128.4,411.4,128.4z M343.8,93.5c-5.6,13.6-8.3,20.5-9.5,24
				c1.8-2.5,3.4-5.8,4.9-9.8C342.1,99.9,343.3,95.7,343.8,93.5z"/>
			<path class="st4" d="M393.6,67.3c0.7,0,1.4,0.1,2.3,0.2c4.5,0.6,7,2.9,7.6,6.8c0.3,2,0,5.2-0.8,9.6c-0.8,4.4-1,8.8-0.4,13.1
				c0.1,1,0.5,1.5,0.9,1.5c0,0,0.1,0,0.1,0c1.4-0.2,4.8-5.4,10.3-15.7c4-8,8.9-12.5,14.7-13.4c0.8-0.1,1.6-0.2,2.4-0.2
				c2.3,0,4.8,0.4,7.3,1.3c5.2,1.8,8.3,5.4,9.2,11c0.3,2,0.4,4.2,0.3,6.6c-0.3,15.9-5,30.2-14.2,43c-3.7,5.1-8.3,8-13.7,8.7
				c-1,0.1-1.9,0.2-2.9,0.2c-1.6,0-3.3-0.2-5-0.6c-1-0.3-1.8-0.4-2.6-0.4c-0.3,0-0.5,0-0.8,0l-2,0.5c-1.3,0.5-3.1,11.1-5.3,32
				c-1,9.9-1,18.3-0.1,25.1l1.2,7.1c0.2,1.8,0.3,3.5,0.1,5.4c-0.2,1.8-2.2,3-6.1,3.5c-1,0.1-1.9,0.2-2.8,0.2c-6.3,0-9.9-3.4-11-10.1
				l-0.1-2.1c-1-20.8-1.2-41.5-0.5-62.2c-2.3,4.3-6,9-11.2,14.1c-5.6,5.6-10.9,9-15.9,10.3c-2.8,0.7-5.4,1.2-7.9,1.5
				c-2.7,0.4-5.2,0.5-7.5,0.5c-15.9,0-25-8.3-27.3-25c-0.2-1.8-0.4-5.8-0.5-12.1c-0.1-6.2,1.6-14.6,5.1-25.1
				c-0.6,0.4-1.1,0.8-1.5,1.2c-14.4,14.5-22.6,33.6-24.5,57.2c-0.6,6.6-2.8,10.1-6.6,10.6c-0.8,0.1-1.5,0.2-2.3,0.2
				c-3,0-5.8-0.9-8.4-2.6c-1.7-1.3-2.7-3.2-3.1-5.8c-0.7-28.1-0.8-51.3-0.5-69.7c0.2-3.9,1.9-6.1,5.3-6.5c1.1-0.1,2.1-0.2,3.1-0.2
				c6.3,0,10,3.2,10.8,9.7c0.2,1.4,0.1,3.2-0.3,5.6c-0.4,3-0.5,5.6-0.2,7.9c0.3,2,0.7,2.9,1.2,2.9c0,0,0,0,0.1,0
				c0.4-0.1,0.8-0.7,1.2-1.8c2.1-6.9,7-12.7,14.6-17.3c2.4-1.6,4.9-2.5,7.5-2.9c0.3,0,0.6-0.1,0.8-0.1c2,0,3.7,1,5.3,2.9
				c0.1,0.2,0.3,0.3,0.4,0.5c6.1-14.2,13.6-21.9,22.4-23.1c1.1-0.1,2.1-0.2,3.2-0.2c7,0,12.9,3.4,17.7,10.2c1.7,2.4,2.8,5,3.1,7.9
				c0.5,3.5,0,7.3-1.5,11.4c-9.3,18.8-18.8,31.4-28.4,37.7c-3.4,2.3-5,4.3-4.7,6.2c0.1,0.8,0.4,1.6,0.7,2.4c1.6,3.7,4,5.6,7.1,5.6
				c0.4,0,0.8,0,1.1-0.1c5.4-0.7,12.2-5.1,20.4-12.9c5.4-5.2,9.2-9.1,11.4-11.7c2.8-3.7,5.2-5.7,7.1-5.9c0.2,0,0.4,0,0.5,0
				c0.8,0,1.6,0.2,2.4,0.7c0,0,0.1,0.1,0.1,0.1c0.8-15.8,2.1-31.5,3.9-47.3c0.6-4.8,2.7-7.4,6.4-7.9
				C392.9,67.3,393.2,67.3,393.6,67.3 M411.3,130.9c0.4,0,0.7,0,1.2,0c0.2-0.3,0.5-0.6,0.9-0.7c4-2.1,8.7-10.4,14.2-25.1
				c2.8-7.7,4-13.2,3.5-16.6c-0.3-2.1-1-3.2-2.2-3.2c-0.1,0-0.2,0-0.3,0c-3.5,0.5-8.4,9.4-14.8,26.7c-3.6,9.9-5.3,15.4-5.2,16.7
				c0.1,0.4,0.2,0.9,0.3,1.6C409.1,130.7,409.9,130.9,411.3,130.9 M333.1,122.7c3.2-2.9,6-7.7,8.4-14.2c3.6-9.6,5.3-15.5,5-17.7
				c-0.1-0.9-0.7-1.4-1.7-1.4c-0.2,0-0.4,0-0.6,0c-0.9,0.1-1.7,0.6-2.1,1.3c-7.8,18.7-11.6,28.8-11.4,30.1
				C330.9,122.1,331.7,122.7,333.1,122.7 M393.6,62.3c-0.6,0-1.2,0-1.7,0.1c-3.5,0.5-9.5,2.7-10.6,12.3c-1.6,14-2.8,28.3-3.7,42.4
				c-3,0.7-6,3.1-9.4,7.6c-2.2,2.5-5.9,6.3-11,11.2c-9.2,8.8-14.6,11.2-17.6,11.6c-0.2,0-0.3,0-0.5,0c-0.4,0-1.4,0-2.5-2.6
				c0-0.1-0.1-0.2-0.1-0.2c0-0.1-0.1-0.2-0.1-0.3c0.3-0.4,1-1,2.4-2c10.5-6.8,20.3-19.8,30.1-39.6c0.1-0.2,0.1-0.3,0.2-0.5
				c1.8-4.8,2.4-9.5,1.8-13.8c-0.5-3.6-1.9-7-4-10.1c-5.7-8.1-13.1-12.3-21.7-12.3c-1.3,0-2.6,0.1-3.9,0.3
				c-9.3,1.3-17.2,8.1-23.6,20.3c-1.4-0.6-2.8-0.7-3.9-0.7c-0.5,0-1,0-1.5,0.1c-3.3,0.5-6.5,1.7-9.5,3.6c-3.5,2.1-6.4,4.4-8.9,7
				c0-0.3,0-0.5-0.1-0.8c-1.2-8.9-7-14-15.8-14c-1.2,0-2.5,0.1-3.8,0.3c-5.8,0.8-9.4,5-9.6,11.3c0,0,0,0.1,0,0.1
				c-0.4,18.4-0.2,41.9,0.5,69.9c0,0.2,0,0.4,0,0.6c0.5,3.9,2.2,7,5,9.1c0.1,0.1,0.1,0.1,0.2,0.1c3.4,2.3,7.2,3.5,11.2,3.5
				c1,0,2-0.1,3-0.2c4.4-0.6,9.8-3.7,10.9-15.1c0,0,0,0,0-0.1c1.1-14.5,4.8-27.3,11-38.2c-0.1,1.6-0.2,3.1-0.2,4.6
				c0.2,8.8,0.4,11.5,0.6,12.7c2.6,19.2,13.8,29.3,32.3,29.3c2.6,0,5.3-0.2,8.2-0.6c2.6-0.4,5.4-0.9,8.3-1.6c0,0,0,0,0.1,0
				c5.9-1.5,11.8-5.2,18.2-11.6c0.8-0.8,1.6-1.6,2.3-2.4c-0.2,15.7,0.1,31.5,0.9,47.1l0.1,2c0,0.2,0,0.4,0.1,0.6
				c1.4,9.1,7.2,14.3,15.9,14.3c1.1,0,2.3-0.1,3.5-0.3c8.1-1.1,10.2-5,10.4-8c0.2-2.2,0.2-4.4-0.1-6.5c0,0,0-0.1,0-0.1l-1.2-7
				c-0.9-6.4-0.8-14.4,0.1-23.8c1.9-17.8,3.2-25,3.8-27.9c0.1,0,0.3,0.1,0.5,0.1c0.1,0,0.2,0.1,0.3,0.1c2,0.4,4.1,0.7,6.1,0.7
				c1.2,0,2.4-0.1,3.6-0.2c6.8-0.9,12.5-4.5,17.1-10.7c9.7-13.5,14.8-28.9,15.2-45.8c0.1-2.6,0-5.1-0.3-7.4c0,0,0-0.1,0-0.1
				c-1.2-7.4-5.5-12.5-12.5-14.9c-3.1-1-6.1-1.6-8.9-1.6c-1,0-2,0.1-3,0.2c0,0-0.1,0-0.1,0c-7.4,1.2-13.6,6.6-18.4,16
				c-0.4,0.8-0.8,1.5-1.2,2.2c0.7-4,0.8-6.9,0.5-9.2c-0.8-6.1-5.1-10.1-11.7-11.1C395.6,62.4,394.6,62.3,393.6,62.3L393.6,62.3z
				 M417.7,115.7c0.2-0.7,0.5-1.4,0.8-2.1c2.2-6.1,4.1-10.6,5.6-13.9c-0.4,1.1-0.8,2.3-1.3,3.6C420.9,108.6,419.2,112.6,417.7,115.7
				L417.7,115.7z"/>
		</g>
		<g>
			<path class="st3" d="M468.2,143.6c-2.4,0-4.8-0.5-7.2-1.5c-6.8-2.7-10.8-7.8-11.8-15.1c-0.2-1.8-0.3-3.7-0.1-5.7
				c1.1-17.6,7-36.2,17.7-55.2c4.7-8.3,10.4-13,16.9-13.9c0.8-0.1,1.7-0.2,2.5-0.2c3.2,0,6.2,0.9,9.1,2.5c3.9,2.3,5.9,4.5,6.3,7
				c0.3,2,0.1,3.8-0.4,5.2c-1.4,3.9-3.5,6.1-6.3,6.5c-0.7,0.1-1.4,0.2-2.1,0.2c-1.5,0-2.8-0.3-3.9-0.8c-0.6-0.3-1.1-0.4-1.5-0.5
				c-0.2,0.3-0.6,0.8-1.2,1.9c-4.5,8.3-8.6,20.4-12.2,36.1c2-2.7,5.3-7.5,10.3-15.9c13.7-23,17.9-27.2,20.1-28.3
				c1.7-0.7,3.2-1.2,4.5-1.3c0.6-0.1,1.2-0.1,1.7-0.1c0.7,0,1.3,0.1,1.9,0.2c0.1,0,0.2,0.1,0.3,0.1c5,1.9,8,6.2,8.9,12.8
				c0.4,2.6,0.4,5.4,0,8.3c-1,9.9-1.1,18.7-0.1,25.9c0.7,5.2,2.5,10.1,5.3,14.6c0.9,1.3,1.4,2.5,1.6,3.6c0.2,1.6,0,5.4-6.8,6.4
				c-0.6,0.1-1.2,0.1-1.8,0.1c-0.7,0-1.3-0.1-1.9-0.2c-12.3-2.1-19.5-10.1-21.4-23.9c-0.1-0.6-0.2-1.1-0.2-1.5c-1.2,2-3,5.1-5.7,9.7
				c-3,5.2-6,10.1-8.9,14.5c-3.3,4.9-7.1,7.7-11.3,8.3C469.7,143.6,469,143.6,468.2,143.6z"/>
			<path class="st4" d="M486.2,54.6c2.7,0,5.3,0.7,7.8,2.2c3.2,1.8,4.8,3.6,5.1,5.2c0.2,1.6,0.1,3-0.3,4c-1.1,3.1-2.5,4.7-4.3,4.9
				c-0.6,0.1-1.2,0.1-1.8,0.1c-1.1,0-2.1-0.2-2.8-0.5c-1.2-0.5-2.2-0.8-3-0.8c-0.8,0.1-1.8,1.2-2.9,3.3c-4.7,8.7-9,21.2-12.6,37.8
				c-0.5,2.1-0.7,3.6-0.6,4.4c0.1,0.6,0.3,0.9,0.7,0.9c0,0,0.1,0,0.1,0c2-0.3,7-7.1,15-20.5c10.1-17,16.4-26.1,19-27.3
				c1.4-0.6,2.7-1,3.8-1.1c0.5-0.1,0.9-0.1,1.4-0.1c0.5,0,0.9,0,1.3,0.1c4.1,1.5,6.5,5.1,7.3,10.8c0.3,2.4,0.3,5,0,7.7
				c-1.1,10.2-1.1,19.1-0.1,26.5c0.8,5.6,2.6,10.8,5.7,15.6c0.7,1,1.1,1.9,1.2,2.5c0.3,1.9-1.3,3.1-4.7,3.5c-0.5,0.1-1,0.1-1.5,0.1
				c-0.5,0-1,0-1.4-0.1c-11.2-1.9-17.6-9.2-19.3-21.8c-0.6-4.3-1.4-6.5-2.3-6.5c0,0-0.1,0-0.1,0c-0.1,0-2.9,4.6-8.3,13.8
				c-3,5.2-5.9,10-8.8,14.4c-2.9,4.3-6,6.7-9.6,7.2c-0.7,0.1-1.3,0.1-2,0.1c-2.1,0-4.1-0.4-6.2-1.3c-6-2.4-9.4-6.7-10.3-13.1
				c-0.2-1.6-0.3-3.3-0.1-5.2c1.1-17.4,6.9-35.5,17.4-54.2c4.3-7.6,9.3-11.8,15-12.6C484.8,54.7,485.5,54.6,486.2,54.6 M486.2,49.6
				C486.2,49.6,486.2,49.6,486.2,49.6c-0.9,0-1.9,0.1-2.9,0.2c-7.3,1-13.6,6.1-18.7,15.1c-10.9,19.3-16.9,38.2-18.1,56.3
				c-0.2,2.2-0.1,4.3,0.1,6.2c1.1,8.1,5.7,14,13.4,17c2.7,1.1,5.4,1.6,8.1,1.6c0.9,0,1.8-0.1,2.7-0.2c5-0.7,9.4-3.9,13.1-9.4
				c2.9-4.4,5.9-9.4,9-14.6c0.9-1.5,1.6-2.8,2.3-3.9c3.8,14.6,14.1,19.5,22.4,20.9c0.7,0.1,1.5,0.2,2.3,0.2c0.7,0,1.4-0.1,2.2-0.2
				c9.5-1.3,9.1-7.9,9-9.2c-0.2-1.4-0.8-2.9-1.9-4.6c-2.6-4.2-4.2-8.7-4.9-13.5c-1-7-0.9-15.5,0.1-25.3c0.4-3.1,0.4-6.1,0-8.9
				c-1.3-9.5-6.4-13.3-10.5-14.8c-0.2-0.1-0.4-0.1-0.5-0.2c-0.8-0.2-1.6-0.3-2.5-0.3c-0.6,0-1.3,0-2,0.1c-1.4,0.2-2.8,0.6-4.4,1.2
				c0-0.7-0.1-1.4-0.2-2.2c-0.6-4.3-4.6-7.1-7.5-8.8C493.3,50.6,489.8,49.6,486.2,49.6L486.2,49.6L486.2,49.6z M480.2,96.5
				c2.5-8.7,5.3-15.7,8.2-21c0,0,0,0,0-0.1c1.3,0.5,2.7,0.7,4.3,0.7c0,0,0,0,0.1,0c-2.7,4.1-6.2,9.6-10.6,17
				C481.5,94.3,480.9,95.4,480.2,96.5L480.2,96.5z"/>
		</g>
	</g>
	<g>
		<path class="st4" d="M164.8,370.8l-5-6.9l-1.9,2v5h-3.6v-16.3h3.6v7.1l6.6-7.1h4.3l-6.6,6.9l6.9,9.4H164.8z"/>
		<path class="st4" d="M177.3,354.4h2.4v16.4h-3.5V358l-2.8,0.7l-0.7-2.9L177.3,354.4z"/>
		<path class="st4" d="M190.1,358.1c-0.5,0.4-1,0.9-1.6,1.6l-2.5-2c0.4-0.5,0.8-1,1.2-1.4c0.4-0.4,0.9-0.8,1.3-1.1
			c0.5-0.3,1-0.5,1.6-0.7c0.6-0.1,1.2-0.2,2-0.2c0.9,0,1.6,0.1,2.3,0.4c0.7,0.2,1.3,0.6,1.8,1s0.9,1,1.1,1.6
			c0.3,0.6,0.4,1.3,0.4,2.1c0,0.7-0.1,1.3-0.3,1.8c-0.2,0.5-0.4,1-0.8,1.5c-0.3,0.5-0.8,1-1.3,1.4c-0.5,0.5-1.2,1-1.9,1.5l-2.6,2
			h7.1v3.1h-12V368l5.4-4.4c0.5-0.4,0.9-0.8,1.3-1.1c0.4-0.3,0.6-0.6,0.9-1c0.2-0.3,0.4-0.6,0.5-0.9c0.1-0.3,0.2-0.6,0.2-0.9
			c0-0.7-0.2-1.2-0.6-1.6c-0.4-0.4-0.9-0.5-1.6-0.5C191.2,357.5,190.6,357.7,190.1,358.1z"/>
	</g>
	<g>
		<g>
			<path class="st4" d="M223.2,355.4h2.2v13.5h8.3v1.9h-10.5V355.4z"/>
			<path class="st4" d="M238,355.4h2.2v15.4H238V355.4z"/>
			<path class="st4" d="M248.8,357.3v5.4h7.7v1.9h-7.7v6.2h-2.2v-15.4h10.8v1.9H248.8z"/>
			<path class="st4" d="M273.4,368.9v1.9h-11.2v-15.4h10.8v1.9h-8.7v4.7h7.7v1.9h-7.7v5H273.4z"/>
			<path class="st4" d="M299.8,355.4l-6.7,15.4h-2.2l-6.8-15.4h2.4L292,368l5.6-12.6H299.8z"/>
			<path class="st4" d="M312.8,367h-8.2l-1.7,3.8h-2.3l7-15.4h2.2l7,15.4h-2.3L312.8,367z M312,365.2l-3.3-7.5l-3.3,7.5H312z"/>
			<path class="st4" d="M320.8,355.4h2.2v13.5h8.3v1.9h-10.5V355.4z"/>
			<path class="st4" d="M335.2,364.2v-8.7h2.2v8.7c0,3.4,1.6,4.9,4.3,4.9c2.8,0,4.3-1.5,4.3-4.9v-8.7h2.1v8.7c0,4.5-2.4,6.8-6.5,6.8
				C337.7,371,335.2,368.6,335.2,364.2z"/>
			<path class="st4" d="M365.6,368.9v1.9h-11.2v-15.4h10.8v1.9h-8.7v4.7h7.7v1.9h-7.7v5H365.6z"/>
			<path class="st4" d="M389.7,368.9v1.9h-11.2v-15.4h10.8v1.9h-8.7v4.7h7.7v1.9h-7.7v5H389.7z"/>
			<path class="st4" d="M404.5,370.8l-4.6-6.3l-4.5,6.3h-2.5l5.8-7.9l-5.4-7.5h2.5l4.3,5.9l4.3-5.9h2.4l-5.4,7.4l5.8,7.9H404.5z"/>
			<path class="st4" d="M423.3,360.8c0,3.3-2.4,5.4-6.4,5.4h-3.8v4.7h-2.2v-15.4h6C420.9,355.4,423.3,357.4,423.3,360.8z
				 M421.1,360.8c0-2.2-1.5-3.4-4.3-3.4h-3.7v6.9h3.7C419.6,364.2,421.1,363,421.1,360.8z"/>
			<path class="st4" d="M439.4,368.9v1.9h-11.2v-15.4h10.8v1.9h-8.7v4.7h7.7v1.9h-7.7v5H439.4z"/>
			<path class="st4" d="M455,370.8l-3.3-4.7c-0.3,0-0.6,0-1,0H447v4.7h-2.2v-15.4h6c4,0,6.4,2,6.4,5.4c0,2.4-1.2,4.1-3.4,4.9
				l3.6,5.2H455z M455,360.8c0-2.2-1.5-3.4-4.3-3.4H447v6.9h3.7C453.5,364.3,455,363,455,360.8z"/>
			<path class="st4" d="M462.5,355.4h2.2v15.4h-2.2V355.4z"/>
			<path class="st4" d="M482.2,368.9v1.9H471v-15.4h10.8v1.9h-8.7v4.7h7.7v1.9h-7.7v5H482.2z"/>
			<path class="st4" d="M500.7,355.4v15.4h-1.8l-9.2-11.5v11.5h-2.2v-15.4h1.8l9.2,11.5v-11.5H500.7z"/>
			<path class="st4" d="M505.8,363.1c0-4.5,3.5-7.9,8.1-7.9c2.4,0,4.4,0.8,5.8,2.4l-1.4,1.4c-1.2-1.3-2.6-1.8-4.3-1.8
				c-3.5,0-6,2.5-6,5.9s2.6,5.9,6,5.9c1.7,0,3.1-0.6,4.3-1.8l1.4,1.4c-1.4,1.6-3.5,2.4-5.9,2.4C509.3,371,505.8,367.7,505.8,363.1z"
				/>
			<path class="st4" d="M535.9,368.9v1.9h-11.2v-15.4h10.8v1.9h-8.7v4.7h7.7v1.9h-7.7v5H535.9z"/>
			<path class="st4" d="M539.8,369l0.8-1.7c1.1,1,3.1,1.8,5.1,1.8c2.7,0,3.8-1,3.8-2.4c0-3.8-9.3-1.4-9.3-7.1c0-2.4,1.8-4.4,5.9-4.4
				c1.8,0,3.7,0.5,4.9,1.4l-0.7,1.8c-1.3-0.9-2.9-1.3-4.2-1.3c-2.6,0-3.7,1.1-3.7,2.4c0,3.8,9.3,1.4,9.3,7c0,2.3-1.9,4.4-5.9,4.4
				C543.3,371,541,370.2,539.8,369z"/>
		</g>
	</g>
	<path class="st2" d="M464.4,130.3l0-0.6c-0.1,0.2-0.2,0.3-0.3,0.5L464.4,130.3z"/>
</g>
</svg>
